<svg width="166" height="41" viewBox="0 0 166 41" fill="none" xmlns="http://www.w3.org/2000/svg">
<path d="M6.67481 22.077C2.9178 22.077 0.673805 20.768 0.673805 17.98C0.673805 17.317 0.826805 16.552 1.1158 15.651L2.9688 16.127C2.8158 16.79 2.7308 17.3 2.7308 17.623C2.7308 19.289 4.0398 20.122 6.67481 20.122C9.07181 20.122 10.4488 19.595 10.4488 18.847C10.4658 17.725 6.28381 17.266 6.3008 14.597C6.3008 13.798 6.64081 13.101 7.3208 12.54C8.0008 11.979 8.9358 11.707 10.1428 11.707C10.7548 11.707 11.4008 11.792 12.0808 11.962L11.7238 13.866C11.2308 13.73 10.7038 13.662 10.1768 13.662C9.0208 13.662 8.3918 14.053 8.3918 14.648C8.3918 15.43 9.8878 15.957 11.0608 16.586C11.8598 17.028 12.5058 17.793 12.5058 18.694C12.5058 19.595 12.0298 20.394 11.0608 21.074C10.0918 21.737 8.6298 22.077 6.67481 22.077ZM5.2128 25.63C4.60081 25.63 4.1248 25.171 4.1248 24.559C4.1248 23.93 4.60081 23.454 5.2128 23.454C5.8418 23.454 6.28381 23.93 6.28381 24.559C6.28381 25.171 5.8418 25.63 5.2128 25.63ZM8.0008 25.63C7.3718 25.63 6.8958 25.171 6.8958 24.559C6.8958 23.93 7.3718 23.454 8.0008 23.454C8.59581 23.454 9.05481 23.93 9.05481 24.559C9.05481 25.171 8.59581 25.63 8.0008 25.63ZM18.228 19C15.508 19 14.454 18.014 14.454 15.821V6.148H16.46V15.77C16.46 16.773 16.987 17.198 18.228 17.198C18.449 17.198 18.568 17.521 18.568 18.15C18.568 18.711 18.449 19 18.228 19ZM19.1135 19H18.2295V17.198H19.1135C19.3345 17.198 19.4535 17.521 19.4535 18.15C19.4535 18.711 19.3345 19 19.1135 19ZM19.9934 19H19.1094V17.198H19.9934C20.2144 17.198 20.3334 17.521 20.3334 18.15C20.3334 18.711 20.2144 19 19.9934 19ZM20.8733 19H19.9893V17.198H20.8733C21.0943 17.198 21.2133 17.521 21.2133 18.15C21.2133 18.711 21.0943 19 20.8733 19ZM21.7531 19H20.8691V17.198H21.7531C21.9741 17.198 22.0931 17.521 22.0931 18.15C22.0931 18.711 21.9741 19 21.7531 19ZM22.633 19H21.749V17.198H22.633C22.854 17.198 22.973 17.521 22.973 18.15C22.973 18.711 22.854 19 22.633 19ZM23.5129 19H22.6289V17.198H23.5129C23.7339 17.198 23.8529 17.521 23.8529 18.15C23.8529 18.711 23.7339 19 23.5129 19ZM24.3928 19H23.5088V17.198H24.3928C24.6138 17.198 24.7328 17.521 24.7328 18.15C24.7328 18.711 24.6138 19 24.3928 19ZM25.2727 19H24.3887V17.198H25.2727C25.4937 17.198 25.6127 17.521 25.6127 18.15C25.6127 18.711 25.4937 19 25.2727 19ZM26.1526 19H25.2686V17.198H26.1526C26.3736 17.198 26.4926 17.521 26.4926 18.15C26.4926 18.711 26.3736 19 26.1526 19ZM27.0324 19H26.1484V17.198H27.0324C27.2534 17.198 27.3724 17.521 27.3724 18.15C27.3724 18.711 27.2534 19 27.0324 19ZM27.9123 19H27.0283V17.198H27.9123C28.1333 17.198 28.2523 17.521 28.2523 18.15C28.2523 18.711 28.1333 19 27.9123 19ZM28.7922 19H27.9082V17.198H28.7922C29.0132 17.198 29.1322 17.521 29.1322 18.15C29.1322 18.711 29.0132 19 28.7922 19ZM29.6721 19H28.7881V17.198H29.6721C29.8931 17.198 30.0121 17.521 30.0121 18.15C30.0121 18.711 29.8931 19 29.6721 19ZM30.552 19H29.668V17.198H30.552C30.773 17.198 30.892 17.521 30.892 18.15C30.892 18.711 30.773 19 30.552 19ZM31.4319 19H30.5479V17.198H31.4319C31.6529 17.198 31.7719 17.521 31.7719 18.15C31.7719 18.711 31.6529 19 31.4319 19ZM32.3117 19H31.4277V17.198H32.3117C32.5327 17.198 32.6517 17.521 32.6517 18.15C32.6517 18.711 32.5327 19 32.3117 19ZM33.1916 19H32.3076V17.198H33.1916C33.4126 17.198 33.5316 17.521 33.5316 18.15C33.5316 18.711 33.4126 19 33.1916 19ZM34.0715 19H33.1875V17.198H34.0715C34.2925 17.198 34.4115 17.521 34.4115 18.15C34.4115 18.711 34.2925 19 34.0715 19ZM34.9514 19H34.0674V17.198H34.9514C35.1724 17.198 35.2914 17.521 35.2914 18.15C35.2914 18.711 35.1724 19 34.9514 19ZM35.8313 19H34.9473V17.198H35.8313C36.0523 17.198 36.1713 17.521 36.1713 18.15C36.1713 18.711 36.0523 19 35.8313 19ZM36.7111 19H35.8271V17.198H36.7111C36.9321 17.198 37.0511 17.521 37.0511 18.15C37.0511 18.711 36.9321 19 36.7111 19ZM37.591 19H36.707V17.198H37.591C37.812 17.198 37.931 17.521 37.931 18.15C37.931 18.711 37.812 19 37.591 19ZM38.4709 19H37.5869V17.198H38.4709C38.6919 17.198 38.8109 17.521 38.8109 18.15C38.8109 18.711 38.6919 19 38.4709 19ZM39.3508 19H38.4668V17.198H39.3508C39.5718 17.198 39.6908 17.521 39.6908 18.15C39.6908 18.711 39.5718 19 39.3508 19ZM40.2307 19H39.3467V17.198H40.2307C40.4517 17.198 40.5707 17.521 40.5707 18.15C40.5707 18.711 40.4517 19 40.2307 19ZM41.1106 19H40.2266V17.198H41.1106C41.3316 17.198 41.4506 17.521 41.4506 18.15C41.4506 18.711 41.3316 19 41.1106 19ZM41.9904 19H41.1064V17.198H41.9904C42.2114 17.198 42.3304 17.521 42.3304 18.15C42.3304 18.711 42.2114 19 41.9904 19ZM42.8703 19H41.9863V17.198H42.8703C43.0913 17.198 43.2103 17.521 43.2103 18.15C43.2103 18.711 43.0913 19 42.8703 19ZM43.7502 19H42.8662V17.198H43.7502C43.9712 17.198 44.0902 17.521 44.0902 18.15C44.0902 18.711 43.9712 19 43.7502 19ZM44.6301 19H43.7461V17.198H44.6301C44.8511 17.198 44.9701 17.521 44.9701 18.15C44.9701 18.711 44.8511 19 44.6301 19ZM45.51 19H44.626V17.198H45.51C45.731 17.198 45.85 17.521 45.85 18.15C45.85 18.711 45.731 19 45.51 19ZM46.3899 19H45.5059V17.198H46.3899C46.6109 17.198 46.7299 17.521 46.7299 18.15C46.7299 18.711 46.6109 19 46.3899 19ZM47.2697 19H46.3857V17.198H47.2697C47.4907 17.198 47.6097 17.521 47.6097 18.15C47.6097 18.711 47.4907 19 47.2697 19ZM48.1496 19H47.2656V17.198H48.1496C48.3706 17.198 48.4896 17.521 48.4896 18.15C48.4896 18.711 48.3706 19 48.1496 19ZM49.0295 19H48.1455V17.198H49.0295C49.2505 17.198 49.3695 17.521 49.3695 18.15C49.3695 18.711 49.2505 19 49.0295 19ZM49.9094 19H49.0254V17.198H49.9094C50.1304 17.198 50.2494 17.521 50.2494 18.15C50.2494 18.711 50.1304 19 49.9094 19ZM50.7893 19H49.9053V17.198H50.7893C51.0103 17.198 51.1293 17.521 51.1293 18.15C51.1293 18.711 51.0103 19 50.7893 19ZM51.6692 19H50.7852V17.198H51.6692C51.8902 17.198 52.0092 17.521 52.0092 18.15C52.0092 18.711 51.8902 19 51.6692 19ZM52.549 19H51.665V17.198H52.549C52.77 17.198 52.889 17.521 52.889 18.15C52.889 18.711 52.77 19 52.549 19ZM53.4289 19H52.5449V17.198H53.4289C53.6499 17.198 53.7689 17.521 53.7689 18.15C53.7689 18.711 53.6499 19 53.4289 19ZM54.3088 19H53.4248V17.198H54.3088C54.5298 17.198 54.6488 17.521 54.6488 18.15C54.6488 18.711 54.5298 19 54.3088 19ZM55.1887 19H54.3047V17.198H55.1887C55.4097 17.198 55.5287 17.521 55.5287 18.15C55.5287 18.711 55.4097 19 55.1887 19ZM56.0686 19H55.1846V17.198H56.0686C56.2896 17.198 56.4086 17.521 56.4086 18.15C56.4086 18.711 56.2896 19 56.0686 19ZM56.9485 19H56.0645V17.198H56.9485C57.1695 17.198 57.2885 17.521 57.2885 18.15C57.2885 18.711 57.1695 19 56.9485 19ZM57.8283 19H56.9443V17.198H57.8283C58.0493 17.198 58.1683 17.521 58.1683 18.15C58.1683 18.711 58.0493 19 57.8283 19ZM58.7082 19H57.8242V17.198H58.7082C58.9292 17.198 59.0482 17.521 59.0482 18.15C59.0482 18.711 58.9292 19 58.7082 19ZM59.5881 19H58.7041V17.198H59.5881C59.8091 17.198 59.9281 17.521 59.9281 18.15C59.9281 18.711 59.8091 19 59.5881 19ZM60.468 19H59.584V17.198H60.468C60.689 17.198 60.808 17.521 60.808 18.15C60.808 18.711 60.689 19 60.468 19ZM61.3479 19H60.4639V17.198H61.3479C61.5689 17.198 61.6879 17.521 61.6879 18.15C61.6879 18.711 61.5689 19 61.3479 19ZM62.2278 19H61.3438V17.198H62.2278C62.4488 17.198 62.5678 17.521 62.5678 18.15C62.5678 18.711 62.4488 19 62.2278 19ZM63.1076 19H62.2236V17.198H63.1076C63.3286 17.198 63.4476 17.521 63.4476 18.15C63.4476 18.711 63.3286 19 63.1076 19ZM63.9875 19H63.1035V17.198H63.9875C64.2085 17.198 64.3275 17.521 64.3275 18.15C64.3275 18.711 64.2085 19 63.9875 19ZM64.8674 19H63.9834V17.198H64.8674C65.0884 17.198 65.2074 17.521 65.2074 18.15C65.2074 18.711 65.0884 19 64.8674 19ZM65.7473 19H64.8633V17.198H65.7473C65.9683 17.198 66.0873 17.521 66.0873 18.15C66.0873 18.711 65.9683 19 65.7473 19ZM66.6272 19H65.7432V17.198H66.6272C66.8482 17.198 66.9672 17.521 66.9672 18.15C66.9672 18.711 66.8482 19 66.6272 19ZM67.507 19H66.623V17.198H67.507C67.728 17.198 67.847 17.521 67.847 18.15C67.847 18.711 67.728 19 67.507 19ZM68.3869 19H67.5029V17.198H68.3869C68.6079 17.198 68.7269 17.521 68.7269 18.15C68.7269 18.711 68.6079 19 68.3869 19ZM69.2668 19H68.3828V17.198H69.2668C69.4878 17.198 69.6068 17.521 69.6068 18.15C69.6068 18.711 69.4878 19 69.2668 19ZM70.1467 19H69.2627V17.198H70.1467C70.3677 17.198 70.4867 17.521 70.4867 18.15C70.4867 18.711 70.3677 19 70.1467 19ZM70.1426 19V17.198C71.4516 17.198 71.8596 16.756 71.8596 15.209V11.894H73.8656V15.481C73.8656 18.065 72.7266 19 70.1426 19ZM72.9646 22.247C72.3696 22.91 71.0096 22.417 71.1116 21.482C71.1116 20.853 71.5706 20.377 72.1996 20.377C72.8286 20.377 73.2536 20.853 73.2536 21.482C73.2536 21.788 73.1516 22.043 72.9646 22.247ZM90.9927 17.198H92.1487C92.3697 17.198 92.4887 17.521 92.4887 18.15C92.4887 18.711 92.3697 19 92.1487 19H90.0747C89.3437 19.731 88.2727 20.088 86.8447 20.088H85.4337C84.9747 19.765 84.6007 19.391 84.3117 19H83.5637C82.6287 19 82.1697 19.459 82.1697 20.377V23.42H80.2147V20.122C80.2147 18.269 81.3537 17.198 83.3087 17.198H83.4957C83.4447 16.977 83.4277 16.705 83.4277 16.382C83.4277 15.243 83.8017 14.325 84.5497 13.594C85.2977 12.88 86.2667 12.523 87.4397 12.523C88.5957 12.523 89.4967 12.88 90.1257 13.594C90.7547 14.308 91.0607 15.226 91.0607 16.331C91.0607 16.671 91.0437 16.96 90.9927 17.198ZM86.1137 18.286H86.9977C88.3747 18.286 89.0547 17.419 89.0547 16.246C89.0547 15.158 88.4087 14.376 87.3037 14.376C86.1987 14.376 85.4337 15.192 85.4337 16.433C85.4337 17.13 85.6547 17.759 86.1137 18.286ZM99.4663 17.198H100.843C101.064 17.198 101.183 17.521 101.183 18.15C101.183 18.711 101.064 19 100.843 19H99.6533C99.9593 19.527 100.112 20.037 100.112 20.496C100.112 22.06 98.8713 23.08 96.7803 23.08C94.2473 23.08 93.1593 21.907 93.1593 19.68V19H92.1562V17.198H93.1593V15.872C93.1593 13.424 94.4173 11.792 96.6783 11.792C99.1943 11.792 100.027 13.764 100.027 15.192C100.027 15.889 99.8403 16.569 99.4663 17.198ZM95.1653 15.515V17.249H96.1003C97.2563 17.249 98.0213 16.484 98.0213 15.26C98.0213 14.325 97.5113 13.645 96.6103 13.645C95.7093 13.645 95.1653 14.308 95.1653 15.515ZM96.7293 21.227C97.6303 21.227 98.0893 20.87 98.0893 20.139C98.0893 19.748 97.9533 19.374 97.6983 19H95.1653V19.51C95.1653 20.683 95.6243 21.227 96.7293 21.227ZM112.161 15.464V11.894H114.167V16.059C114.167 17.878 112.909 19 110.988 19C110.019 19 109.254 18.745 108.693 18.218C108.098 18.745 107.282 19 106.245 19C105.106 19 104.307 18.728 103.831 18.201C103.304 18.728 102.42 19 101.213 19H100.839V17.198H101.213C102.284 17.198 102.658 16.756 102.658 15.515V13.135H104.664V16.059C104.664 16.824 105.106 17.198 105.99 17.198C107.027 17.198 107.401 16.756 107.401 15.515V13.135H109.407V16.059C109.407 16.824 109.866 17.198 110.767 17.198C111.855 17.198 112.161 16.705 112.161 15.464Z" fill="white"/>
<path d="M21.355 20.658C22.766 20.658 23.922 21.066 24.806 21.899L23.242 23.548C22.783 22.919 22.086 22.596 21.134 22.596C19.927 22.596 19.162 23.208 19.162 24.143C19.162 24.908 19.757 25.367 21.032 25.775C21.525 25.928 21.916 26.064 22.188 26.149C22.46 26.251 22.8 26.404 23.191 26.608C23.582 26.829 23.888 27.05 24.092 27.271C24.5 27.73 24.874 28.512 24.874 29.464C24.874 30.671 24.466 31.606 23.65 32.286C22.817 32.966 21.797 33.306 20.556 33.306C18.771 33.306 17.428 32.762 16.527 31.674L18.142 30.11C18.703 30.943 19.485 31.368 20.522 31.368C21.695 31.368 22.63 30.671 22.63 29.719C22.63 28.835 22.035 28.342 20.471 27.866C19.247 27.492 18.346 27.05 17.785 26.557C17.207 26.064 16.918 25.299 16.918 24.296C16.918 23.208 17.326 22.324 18.159 21.661C18.975 20.998 20.046 20.658 21.355 20.658ZM30.3687 24.636C32.9527 24.636 33.8537 25.962 33.8537 28.121V33H32.0177V31.878H31.9667C31.4057 32.762 30.5387 33.204 29.3487 33.204C27.6317 33.204 26.3737 32.235 26.3737 30.756C26.3737 28.852 27.9207 27.917 31.3887 27.917H32.0177V27.679C32.0177 26.727 31.2867 26.166 30.1477 26.166C29.3147 26.166 28.6007 26.455 27.9717 27.016L26.9007 25.945C27.7507 25.078 28.9067 24.636 30.3687 24.636ZM28.4137 30.603C28.4137 31.266 29.0427 31.674 29.8587 31.674C31.2017 31.674 31.8987 30.943 31.8987 29.855V29.345H31.3037C29.3827 29.345 28.4137 29.77 28.4137 30.603ZM36.0486 20.148H38.0886V25.979H38.1226C38.5476 25.146 39.4486 24.636 40.5196 24.636C42.4406 24.636 43.4946 25.894 43.4946 27.798V33H41.4546V28.767C41.4546 27.237 40.9616 26.472 39.9586 26.472C38.7856 26.472 38.0886 27.288 38.0886 28.529V33H36.0486V20.148ZM50.1963 24.636C51.4713 24.636 52.3213 25.146 52.7463 26.149C53.3243 25.146 54.2253 24.636 55.4323 24.636C57.3873 24.636 58.3733 25.826 58.3733 28.189V33H56.3333V28.325C56.3333 27.084 55.8233 26.472 54.8203 26.472C53.7323 26.472 53.0693 27.271 53.0693 28.58V33H51.0293V28.087C51.0293 27.152 50.6383 26.472 49.6353 26.472C48.4283 26.472 47.7653 27.322 47.7653 28.546V33H45.7253V24.84H47.6633V26.115H47.6973C48.1733 25.129 49.0063 24.636 50.1963 24.636ZM60.7893 20.964H65.5493C67.1133 20.964 69.1703 21.678 69.1703 23.99C69.1703 25.231 68.4223 26.2 67.0793 26.625V26.659C67.8443 26.744 68.4733 27.067 68.9663 27.611C69.4423 28.172 69.6803 28.818 69.6803 29.566C69.6803 31.81 67.9293 33 65.2093 33H60.7893V20.964ZM62.9313 25.86H64.9543C66.2463 25.86 67.0283 25.282 67.0283 24.347C67.0283 23.31 66.2803 22.8 64.7843 22.8H62.9313V25.86ZM62.9313 31.164H64.9713C66.6883 31.164 67.5383 30.569 67.5383 29.396C67.5383 28.189 66.7733 27.696 65.0903 27.696H62.9313V31.164ZM75.0767 24.636C77.6607 24.636 78.5617 25.962 78.5617 28.121V33H76.7257V31.878H76.6747C76.1137 32.762 75.2467 33.204 74.0567 33.204C72.3397 33.204 71.0817 32.235 71.0817 30.756C71.0817 28.852 72.6287 27.917 76.0967 27.917H76.7257V27.679C76.7257 26.727 75.9947 26.166 74.8557 26.166C74.0227 26.166 73.3087 26.455 72.6797 27.016L71.6087 25.945C72.4587 25.078 73.6147 24.636 75.0767 24.636ZM73.1217 30.603C73.1217 31.266 73.7507 31.674 74.5667 31.674C75.9097 31.674 76.6067 30.943 76.6067 29.855V29.345H76.0117C74.0907 29.345 73.1217 29.77 73.1217 30.603ZM83.1366 33.068L79.6516 24.84H81.8956L84.1736 30.501H84.2076L86.2476 24.84H88.3726L84.6496 34.394C84.2586 35.363 84.0376 35.822 83.5616 36.349C83.0686 36.876 82.4056 37.08 81.4026 37.08C80.8756 37.08 80.3486 37.012 79.8386 36.876L80.0936 35.04C80.4676 35.176 80.8076 35.244 81.1306 35.244C81.6236 35.244 81.9806 35.159 82.1676 34.989C82.3546 34.802 82.5586 34.462 82.7796 33.952L83.1366 33.068Z" fill="white"/>
<path d="M139.5 30.9177H142.5C152.441 30.9177 160.5 26.2205 160.5 14.0078M121.5 30.9177H124.5C134.441 30.9177 142.5 26.2205 142.5 14.0078M94 30.9177H106.5C116.441 30.9177 124.5 26.2205 124.5 14.0078" stroke="white" stroke-width="10"/>
</svg>
