<svg width="100" height="100" viewBox="0 0 100 100" fill="none" xmlns="http://www.w3.org/2000/svg">
<rect width="100" height="100" rx="50" fill="#F5F5F5"/>
<mask id="mask0_85_10" style="mask-type:alpha" maskUnits="userSpaceOnUse" x="0" y="0" width="100" height="100">
<rect width="100" height="100" rx="50" fill="#F5F5F5"/>
</mask>
<g mask="url(#mask0_85_10)">
<path d="M41.7846 45L56.9401 53.75L38.33 138.984L-20.5597 104.984L41.7846 45Z" fill="#9CA3AF"/>
</g>
<path d="M32.1455 62.5403L48.067 71.7326C44.4922 74.4666 39.9568 75.6872 35.5 75.1147C32.7759 71.5413 31.5652 67.0031 32.1455 62.5403ZM60.58 63.1748L62.143 70.9678L59.6082 75.3581L23.2351 54.3581L25.7699 49.9678L33.3002 47.4248L40.9357 34.1998C45.5176 26.2638 55.1088 22.7994 64.5 24.8853C71.002 31.9754 72.7974 42.0138 68.2155 49.9498L60.58 63.1748ZM51.9448 46.6315C54.4559 48.0812 57.6693 47.2164 59.1223 44.6998C60.5752 42.1832 59.7175 38.9679 57.2064 37.5181C54.6953 36.0683 51.4819 36.9332 50.029 39.4498C48.576 41.9664 49.4337 45.1817 51.9448 46.6315Z" fill="#1F2A37"/>
</svg>
